<?xml version="1.0" encoding="utf-8"?>
<!-- Generator: Adobe Illustrator 22.0.1, SVG Export Plug-In . SVG Version: 6.00 Build 0)  -->
<svg version="1.1" id="Layer_1" xmlns="http://www.w3.org/2000/svg" xmlns:xlink="http://www.w3.org/1999/xlink" x="0px" y="0px"
	 viewBox="0 0 48 48" style="enable-background:new 0 0 48 48;" xml:space="preserve">
<path d="M24,0.3C10.9,0.3,0.3,10.9,0.3,24S10.9,47.7,24,47.7S47.7,37.1,47.7,24S37.1,0.3,24,0.3z M24,35.4l-7.1-7.1h-5.7v-8.6h5.7
	l7.1-7.1V35.4z M26.9,18.3c2.1,1,3.6,3.2,3.6,5.7s-1.5,4.7-3.6,5.8V18.3z M26.9,36.5v-2.9c4.1-1.2,7.1-5,7.1-9.6s-3-8.3-7.1-9.6
	v-2.9c5.7,1.3,10,6.4,10,12.5S32.6,35.2,26.9,36.5z"/>
<ellipse cx="-2.3" cy="65.4" rx="0.1" ry="0.7"/>
</svg>
